<svg preserveAspectRatio="none" width="100%" height="100%" overflow="visible" style="display: block;" viewBox="0 0 82 10.2501" fill="none" xmlns="http://www.w3.org/2000/svg">
<g id="Group">
<path id="Vector" d="M14.4899 10.2501L16.6756 0H2.18576L0 10.2501H14.4899Z" fill="var(--fill-0, white)"/>
<path id="Vector_2" fill-rule="evenodd" clip-rule="evenodd" d="M10.7745 2.14986C12.4574 2.54083 12.501 2.95337 12.501 2.95337C13.5937 2.95337 13.878 2.95337 14.0746 3.1488C14.7084 3.73519 13.6375 5.16846 13.6375 5.16846C13.5065 5.25532 1.44238 9.94597 1.44238 9.94597H14.1402L16.1727 0.412606H2.53512C2.53512 0.412606 10.5778 2.10638 10.7745 2.14986Z" fill="var(--fill-0, #333366)"/>
<path id="Vector_3" fill-rule="evenodd" clip-rule="evenodd" d="M12.0203 3.53965C11.7367 3.6357 11.4436 3.70126 11.146 3.7352C10.9712 3.75686 10.8838 3.75686 10.8838 3.80025C10.8838 3.86556 11.1241 3.84374 11.2116 3.84374C11.6051 3.84374 13.1568 3.7352 13.5283 3.80025C13.8124 3.84374 13.4845 4.40832 13.3971 4.75579C13.3753 4.88605 13.4627 4.82097 13.5065 4.75579C13.6959 4.45888 13.8429 4.1373 13.9435 3.80025C13.9872 3.36602 13.6812 3.30085 13.1568 3.30085H12.348C12.325 3.29758 12.3016 3.30227 12.2817 3.31415C12.2618 3.32602 12.2467 3.34435 12.2388 3.36604C12.1733 3.43109 12.0641 3.49617 12.0203 3.53967L12.0203 3.53965Z" fill="var(--fill-0, #333366)"/>
<path id="Vector_4" fill-rule="evenodd" clip-rule="evenodd" d="M6.99379 6.7538L0.502749 9.94601L2.07637 2.62773H8.63276C8.74201 2.62773 12.1514 2.62773 12.2171 3.30089H6.31623L7.23398 6.08055C8.2832 5.58102 10.862 4.53872 12.4137 4.47341C13.0694 4.45173 13.3316 4.56027 13.2005 4.64729C13.1131 4.69064 12.4793 4.77751 11.9766 4.90789C11.3552 5.04703 10.7422 5.22099 10.1407 5.42896C9.06753 5.81158 8.01692 6.25389 6.9938 6.7538H6.99379Z" fill="var(--fill-0, #333366)"/>
<path id="Vector_5" fill-rule="evenodd" clip-rule="evenodd" d="M20.5874 10.1631C18.0522 10.1631 16.5442 9.16404 17.0469 6.9274C17.8774 3.06196 18.4238 0.477857 18.4238 0.477857H20.5437C20.5437 0.477857 19.2543 6.42789 19.2978 6.29767C18.9701 7.77429 19.2978 8.66467 20.9152 8.66467C22.4669 8.66467 23.2537 7.77428 23.5815 6.29767C23.7781 5.45066 24.8272 0.477857 24.8272 0.477857H26.9472C25.5266 6.92742 26.9472 0.477857 25.5484 6.92742C25.0239 9.1425 23.1007 10.1631 20.5874 10.1631V10.1631Z" fill="var(--fill-0, #333366)"/>
<path id="Vector_6" fill-rule="evenodd" clip-rule="evenodd" d="M38.2683 6.36289C37.8074 6.35823 37.3473 6.32197 36.8915 6.25435L37.1537 4.88614C37.416 4.90795 37.7656 4.95143 38.0934 4.95143C38.5723 4.98934 39.0485 4.85096 39.4313 4.56263C39.8142 4.27431 40.0769 3.85617 40.1696 3.38781C40.3881 2.34538 39.8637 1.97623 39.0987 1.97623H37.3722L35.6675 9.98944H33.5475L35.5801 0.477905H40.1696C42.2458 0.477905 42.4863 2.28031 42.224 3.47467C41.8306 5.25542 40.1477 6.36289 38.2683 6.36289H38.2683Z" fill="var(--fill-0, #333366)"/>
<path id="Vector_7" fill-rule="evenodd" clip-rule="evenodd" d="M33.788 1.99788H31.5368C30.3786 1.99788 29.8759 2.23681 29.7665 2.69283C29.4387 4.21298 33.5693 5.40733 33.1759 7.75264C32.9573 9.05554 31.8209 9.98942 29.1764 9.98942H25.942L26.2697 8.46928H28.8486C29.6573 8.46928 30.6407 8.51278 30.8156 7.70914C31.1215 6.3412 27.0565 4.99465 27.3624 2.71453C27.5591 1.34643 28.783 0.477751 31.2527 0.477751L34.0938 0.477887L33.788 1.99788H33.788Z" fill="var(--fill-0, #333366)"/>
<path id="Vector_8" fill-rule="evenodd" clip-rule="evenodd" d="M49.5454 1.99788H47.2945C46.136 1.99788 45.6334 2.23681 45.524 2.69283C45.1963 4.21298 49.3269 5.40733 48.9334 7.75264C48.7149 9.05554 47.5784 9.98942 44.934 9.98942H41.6993L42.0273 8.46928H44.628C45.4367 8.46928 46.4202 8.51278 46.5949 7.70914C46.901 6.3412 42.8358 4.99465 43.1419 2.71453C43.3386 1.34643 44.5625 0.477751 47.0322 0.477751L49.8731 0.477887L49.5454 1.99788Z" fill="var(--fill-0, #333366)"/>
<path id="Vector_9" fill-rule="evenodd" clip-rule="evenodd" d="M50.2665 8.29564C50.098 8.29567 49.9332 8.34536 49.7931 8.43843C49.6529 8.53151 49.5437 8.66378 49.4792 8.81853C49.4147 8.97328 49.3979 9.14355 49.4308 9.30782C49.4637 9.47209 49.5449 9.62298 49.6641 9.7414C49.7833 9.85983 49.9351 9.94047 50.1004 9.97313C50.2658 10.0058 50.4371 9.98901 50.5929 9.92491C50.7486 9.8608 50.8817 9.75225 50.9753 9.61299C51.069 9.47372 51.1189 9.30999 51.1189 9.1425C51.1187 8.91795 51.0288 8.70269 50.869 8.54393C50.7092 8.38517 50.4925 8.29588 50.2665 8.29564V8.29564Z" fill="var(--fill-0, #333366)"/>
<path id="Vector_10" fill-rule="evenodd" clip-rule="evenodd" d="M82 0.434554L79.9235 9.96764H78.1532L79.7272 2.88844L75.5092 9.96764H73.6952L72.6898 3.34427L71.2256 9.96764H69.4772L71.5094 0.434554H74.0446L75.1156 7.44857L79.2243 0.434554H82Z" fill="var(--fill-0, #333366)"/>
<path id="Vector_11" fill-rule="evenodd" clip-rule="evenodd" d="M55.8613 10.1631C54.7156 10.2131 53.5834 9.90134 52.6269 9.27264C52.1886 8.94194 51.8381 8.51001 51.6058 8.01429C51.3735 7.51858 51.2664 6.97404 51.2937 6.42789C51.2945 6.00357 51.3458 5.58084 51.4466 5.16851C52.146 1.75906 55.009 0.238935 57.9157 0.238935C58.6348 0.245598 59.3518 0.31828 60.0575 0.456055L60.2106 0.477865L59.861 2.01967L59.7298 1.99785C59.2489 1.95451 58.921 1.91113 58.484 1.91113C58.0897 1.91177 57.6957 1.93349 57.3037 1.97619C56.618 2.03109 55.9605 2.27141 55.4024 2.67112C54.815 3.03725 54.3279 3.54221 53.9847 4.14091C53.6415 4.73961 53.4528 5.41343 53.4354 6.10224C53.4165 6.46402 53.4958 6.82419 53.665 7.14509C53.8342 7.46599 54.087 7.73582 54.3971 7.92635C55.1381 8.35654 55.9873 8.56751 56.8448 8.53444C57.3271 8.53863 57.809 8.50965 58.2873 8.44768L58.5059 8.4259L58.178 9.92432L58.0688 9.94613C57.341 10.0838 56.6022 10.1565 55.8613 10.1631H55.8613Z" fill="var(--fill-0, #333366)"/>
<path id="Vector_12" fill-rule="evenodd" clip-rule="evenodd" d="M65.5214 0.412606C62.5928 0.412606 60.1669 1.93275 59.4676 5.25532C58.8993 7.92629 60.5385 10.1197 63.4452 10.1197C66.3957 10.1197 68.7558 8.66475 69.499 5.25532C70.0673 2.47566 68.4063 0.412606 65.5214 0.412606ZM67.532 5.277C67.0731 7.6657 65.6306 8.68646 63.8167 8.68646C62.0246 8.68646 61.0411 7.14452 61.369 5.27702C61.806 2.93158 63.2922 1.88929 65.0842 1.88929C66.8764 1.8676 67.9035 3.32255 67.532 5.27702V5.277Z" fill="var(--fill-0, #333366)"/>
</g>
</svg>
