<svg preserveAspectRatio="none" width="100%" height="100%" overflow="visible" style="display: block;" viewBox="0 0 71.0001 16" fill="none" xmlns="http://www.w3.org/2000/svg">
<g id="Group">
<path id="Vector" d="M70.9998 0V16H0V0H70.9998Z" fill="var(--fill-0, #FFCC00)"/>
<path id="Vector_2" d="M12.4858 2.87331L10.2174 6.02033H22.5804C23.2054 6.02033 23.1971 6.2628 22.8917 6.68529C22.5816 7.11433 22.0624 7.86021 21.7464 8.29574C21.5861 8.51691 21.2962 8.91966 22.2569 8.91966H27.3126C27.3126 8.91966 28.1275 7.78733 28.8105 6.84071C29.7399 5.55303 28.8911 2.87331 25.5689 2.87331H12.4858Z" fill="var(--fill-0, #BF190E)"/>
<path id="Vector_3" d="M9.29954 13.1258L13.8557 6.80414C13.8557 6.80414 18.9066 6.80419 19.5098 6.80419C20.1347 6.80419 20.1265 7.04665 19.8211 7.4692C19.511 7.89825 18.9832 8.63619 18.6673 9.07192C18.5069 9.29297 18.217 9.69646 19.1776 9.69646H26.7521C26.1223 10.5777 24.0789 13.1258 20.4098 13.1258H9.29954Z" fill="var(--fill-0, #BF190E)"/>
<path id="Vector_4" d="M35.3932 9.69568L32.9225 13.1258H26.4049C26.4049 13.1258 28.8742 9.69642 28.8764 9.69642L35.3932 9.69568Z" fill="var(--fill-0, #BF190E)"/>
<path id="Vector_5" d="M45.3781 8.91967H29.4364L33.7958 2.87328H40.3114L37.8128 6.34042H40.7213L43.2209 2.87328H49.7359L45.3781 8.91967Z" fill="var(--fill-0, #BF190E)"/>
<path id="Vector_6" d="M44.8183 9.69647L42.3464 13.1258H35.8312C35.8312 13.1258 38.3007 9.69647 38.3029 9.69647H44.8183Z" fill="var(--fill-0, #BF190E)"/>
<path id="Vector_7" d="M0 11.0488H9.60134L9.07673 11.7774H0V11.0488Z" fill="var(--fill-0, #BF190E)"/>
<path id="Vector_8" d="M0 9.69638H10.5768L10.0513 10.424H0V9.69638Z" fill="var(--fill-0, #BF190E)"/>
<path id="Vector_9" d="M0 12.4019H8.62638L8.1044 13.1258H0V12.4019Z" fill="var(--fill-0, #BF190E)"/>
<path id="Vector_10" d="M71 11.7774H61.4354L61.9603 11.0488H71V11.7774Z" fill="var(--fill-0, #BF190E)"/>
<path id="Vector_11" d="M70.9999 13.1258L60.463 13.1267L60.9849 12.4019H70.9999V13.1258Z" fill="var(--fill-0, #BF190E)"/>
<path id="Vector_12" d="M62.9345 9.69638H71V10.4244L62.4104 10.4249L62.9345 9.69638Z" fill="var(--fill-0, #BF190E)"/>
<path id="Vector_13" d="M58.7595 2.87331L54.4007 8.91966H47.4968C47.4968 8.91966 51.8563 2.87331 51.8585 2.87331H58.7595Z" fill="var(--fill-0, #BF190E)"/>
<path id="Vector_14" d="M46.9379 9.69647C46.9379 9.69647 46.4617 10.3611 46.2303 10.6806C45.4119 11.8099 46.1354 13.1258 48.8062 13.1258H59.27L61.7417 9.69647H46.9379Z" fill="var(--fill-0, #BF190E)"/>
</g>
</svg>
