<svg width="61" height="26" viewBox="0 0 61 26" fill="none" xmlns="http://www.w3.org/2000/svg">
<g id="Group 1171275726">
<path id="Vector" d="M11.3258 3.54594C10.6208 4.38844 9.49583 5.05094 8.37083 4.95594C8.23083 3.81844 8.78083 2.61094 9.42583 1.86344C10.1308 0.998438 11.3608 0.385937 12.3558 0.335938C12.4733 1.52094 12.0158 2.68094 11.3258 3.54594ZM12.3433 5.18094C10.7158 5.08594 9.31833 6.11844 8.54833 6.11844C7.76083 6.11844 6.57833 5.22844 5.28833 5.25344C3.61333 5.27844 2.05583 6.23594 1.20083 7.76594C-0.559169 10.8209 0.743331 15.3484 2.44083 17.8359C3.27333 19.0684 4.27083 20.4184 5.58333 20.3709C6.82333 20.3234 7.31583 19.5534 8.81583 19.5534C10.3283 19.5534 10.7608 20.3709 12.0758 20.3484C13.4333 20.3234 14.2883 19.1159 15.1208 17.8834C16.0708 16.4834 16.4583 15.1234 16.4808 15.0509C16.4558 15.0259 13.8558 14.0209 13.8308 10.9884C13.8083 8.45094 15.8808 7.24344 15.9758 7.17344C14.8058 5.41844 12.9758 5.22844 12.3433 5.18094ZM21.7558 1.74594V20.2184H24.5933V13.9034H28.5183C32.1033 13.9034 34.6233 11.4134 34.6233 7.81344C34.6233 4.21094 32.1508 1.74594 28.6133 1.74594H21.7533H21.7558ZM24.5933 4.16344H27.8633C30.3233 4.16344 31.7283 5.48844 31.7283 7.82344C31.7283 10.1584 30.3233 11.4984 27.8508 11.4984H24.5908V4.16094L24.5933 4.16344ZM39.8033 20.3584C41.5858 20.3584 43.2383 19.4484 43.9883 18.0009H44.0458V20.2184H46.6708V11.0234C46.6708 8.35844 44.5608 6.63844 41.3158 6.63844C38.3033 6.63844 36.0783 8.38094 35.9958 10.7734H38.5508C38.7608 9.63594 39.8033 8.89094 41.2333 8.89094C42.9683 8.89094 43.9408 9.70844 43.9408 11.2134V12.2309L40.4008 12.4459C37.1083 12.6459 35.3258 14.0084 35.3258 16.3784C35.3258 18.7709 37.1658 20.3584 39.8033 20.3584ZM40.5658 18.1684C39.0533 18.1684 38.0908 17.4334 38.0908 16.3084C38.0908 15.1459 39.0183 14.4709 40.7883 14.3634L43.9383 14.1634V15.2059C43.9383 16.9359 42.4908 18.1684 40.5658 18.1684ZM50.1758 25.2434C52.9408 25.2434 54.2408 24.1759 55.3758 20.9409L60.3558 6.81594H57.4733L54.1333 17.7284H54.0758L50.7358 6.81594H47.7708L52.5733 20.2659L52.3158 21.0834C51.8833 22.4684 51.1808 23.0009 49.9258 23.0009C49.7033 23.0009 49.2708 22.9759 49.0933 22.9534V25.1709C49.2583 25.2184 49.9608 25.2409 50.1733 25.2409L50.1758 25.2434Z" fill="white"/>
</g>
</svg>
