<svg width="44" height="41" viewBox="0 0 44 41" fill="none" xmlns="http://www.w3.org/2000/svg">
<g id="credit-card 2">
<g id="Group">
<path id="Vector" opacity="0.984" fill-rule="evenodd" clip-rule="evenodd" d="M6.2318 8.73536C16.6992 8.72232 27.1666 8.73536 37.634 8.77443C39.1459 9.11755 40.0364 10.016 40.3056 11.4697C40.3467 12.2245 40.3604 12.9797 40.3467 13.7354C28.0709 13.7354 15.7949 13.7354 3.51905 13.7354C3.50536 12.9797 3.51906 12.2245 3.56015 11.4697C3.84458 10.0148 4.73513 9.10333 6.2318 8.73536Z" fill="#6B7283"/>
</g>
<g id="Group_2">
<path id="Vector_2" opacity="0.985" fill-rule="evenodd" clip-rule="evenodd" d="M3.51905 16.8604C15.7949 16.8604 28.0709 16.8604 40.3467 16.8604C40.3605 20.9489 40.3467 25.0375 40.3056 29.126C40.0364 30.5797 39.1459 31.4782 37.634 31.8213C27.1666 31.8734 16.6992 31.8734 6.23181 31.8213C4.71992 31.4782 3.82937 30.5797 3.56016 29.126C3.51905 25.0375 3.50535 20.9489 3.51905 16.8604ZM7.46488 19.5166C10.7258 19.5036 13.9866 19.5166 17.2472 19.5557C18.2722 20.0564 18.4777 20.7726 17.8638 21.7041C17.6787 21.8507 17.4732 21.9679 17.2472 22.0557C13.9864 22.1078 10.7257 22.1078 7.46488 22.0557C6.52215 21.6857 6.23444 21.0478 6.60173 20.1416C6.83644 19.8517 7.12416 19.6434 7.46488 19.5166ZM31.8797 19.5166C33.1952 19.5036 34.5104 19.5166 35.8255 19.5557C35.9723 19.617 36.0956 19.7081 36.1954 19.8291C36.33 21.1501 36.3574 22.4782 36.2776 23.8135C36.2131 23.953 36.1172 24.0702 35.9899 24.165C34.6253 24.2918 33.2552 24.3179 31.8797 24.2432C31.705 24.1555 31.5544 24.0383 31.4275 23.8916C31.2943 22.6468 31.2669 21.3968 31.3453 20.1416C31.4503 19.873 31.6284 19.6646 31.8797 19.5166ZM8.36913 27.3291C9.84906 27.3161 11.3287 27.3291 12.8082 27.3682C13.4801 27.6202 13.6583 28.0499 13.3425 28.6572C13.182 28.8443 12.9765 28.9614 12.726 29.0088C11.3285 29.0609 9.93102 29.0609 8.53354 29.0088C7.75527 28.7921 7.54975 28.3364 7.917 27.6416C8.06597 27.5262 8.21668 27.4221 8.36913 27.3291ZM16.0142 27.3291C17.4941 27.3161 18.9738 27.3291 20.4532 27.3682C21.193 27.7304 21.3025 28.2252 20.782 28.8525C20.6265 28.9286 20.4621 28.9807 20.2888 29.0088C18.9187 29.0609 17.5487 29.0609 16.1786 29.0088C15.4139 28.8444 15.1809 28.4147 15.4798 27.7197C15.6282 27.538 15.8063 27.4079 16.0142 27.3291ZM23.6592 27.3291C25.1117 27.3161 26.564 27.3291 28.016 27.3682C28.8769 27.7763 28.9591 28.2971 28.2626 28.9307C28.1531 28.9567 28.0434 28.9828 27.9338 29.0088C26.5364 29.0609 25.1389 29.0609 23.7414 29.0088C22.9595 28.7714 22.7678 28.3157 23.166 27.6416C23.3131 27.4997 23.4775 27.3956 23.6592 27.3291ZM31.222 27.3291C32.7019 27.3161 34.1816 27.3291 35.6611 27.3682C36.2233 27.5645 36.4289 27.9421 36.2776 28.501C36.124 28.8151 35.8637 28.9843 35.4967 29.0088C34.1266 29.0609 32.7565 29.0609 31.3864 29.0088C30.8556 28.947 30.5816 28.6605 30.5644 28.1494C30.6144 27.7507 30.8336 27.4772 31.222 27.3291Z" fill="#6B7283"/>
</g>
</g>
</svg>
