<svg width="26" height="19" viewBox="0 0 26 19" fill="none" xmlns="http://www.w3.org/2000/svg">
<path d="M8.99994 17.7958C9.29623 15.4625 11.311 10.7959 16.9999 10.7959C22.6888 10.7959 24.7036 15.4625 24.9999 17.7958" stroke="black" stroke-width="1.5" stroke-linecap="round"/>
<ellipse cx="17" cy="3.99584" rx="3.19999" ry="3.19994" stroke="black" stroke-width="1.5"/>
<path d="M0.999939 12.1332C1.19515 10.5959 2.52255 7.52148 6.27052 7.52148C8.99992 7.52148 10.5999 9.73316 10.5999 9.73316" stroke="black" stroke-width="1.5" stroke-linecap="round"/>
<path d="M8.25013 2.83935C8.25013 3.88053 7.40607 4.7246 6.36484 4.7246C5.32361 4.7246 4.47955 3.88053 4.47955 2.83935C4.47955 1.79817 5.32361 0.954102 6.36484 0.954102C7.40607 0.954102 8.25013 1.79817 8.25013 2.83935Z" stroke="black" stroke-width="1.5"/>
</svg>
