<svg width="22" height="22" viewBox="0 0 22 22" fill="none" xmlns="http://www.w3.org/2000/svg">
<path d="M11.2744 17.1614H3.06145C1.87273 17.1614 1.00822 16.1888 1.00822 15.1082V5.4904C0.900152 4.30168 1.87273 3.3291 3.06145 3.3291H15.8131C17.0018 3.3291 17.8663 4.30168 17.8663 5.38233V10.4614" stroke="#1569C7" stroke-width="2" stroke-miterlimit="10" stroke-linecap="round" stroke-linejoin="round"/>
<path d="M5.22278 4.84222V1.81641" stroke="#1569C7" stroke-width="2" stroke-miterlimit="10" stroke-linecap="round" stroke-linejoin="round"/>
<path d="M13.6519 4.84222V1.81641" stroke="#1569C7" stroke-width="2" stroke-miterlimit="10" stroke-linecap="round" stroke-linejoin="round"/>
<path d="M15.9208 20.2958C18.7259 20.2958 20.9999 18.0218 20.9999 15.2167C20.9999 12.4117 18.7259 10.1377 15.9208 10.1377C13.1158 10.1377 10.8418 12.4117 10.8418 15.2167C10.8418 18.0218 13.1158 20.2958 15.9208 20.2958Z" stroke="#1569C7" stroke-width="2" stroke-miterlimit="10" stroke-linecap="round" stroke-linejoin="round"/>
<path d="M15.9211 13.1426V15.2167L17.1099 16.2973" stroke="#1569C7" stroke-width="2" stroke-miterlimit="10" stroke-linecap="round" stroke-linejoin="round"/>
</svg>
