<svg width="43" height="41" viewBox="0 0 43 41" fill="none" xmlns="http://www.w3.org/2000/svg">
<g id="ewallet 1">
<g id="Group">
<path id="Vector" opacity="0.984" fill-rule="evenodd" clip-rule="evenodd" d="M9.52503 5.29785C16.8413 5.28483 24.1575 5.29785 31.4737 5.33692C33.4333 5.77985 34.5842 6.9387 34.9263 8.81348C34.6539 8.7709 34.3799 8.73184 34.1042 8.69629C25.9933 8.64418 17.8825 8.64418 9.77164 8.69629C8.23479 8.78199 6.98803 9.39395 6.03133 10.5322C5.66575 7.83777 6.83032 6.09298 9.52503 5.29785Z" fill="white"/>
</g>
<g id="Group_2">
<path id="Vector_2" opacity="0.99" fill-rule="evenodd" clip-rule="evenodd" d="M9.52504 10.2974C17.8307 10.2592 26.1333 10.2982 34.433 10.4146C36.0955 10.9527 37.123 12.0334 37.5157 13.6567C37.5568 15.3232 37.5705 16.9899 37.5568 18.6567C35.3645 18.6437 33.1724 18.6567 30.9804 18.6958C29.1223 19.0816 28.1085 20.1753 27.9389 21.9771C28.1596 23.9577 29.3105 25.0514 31.3915 25.2583C33.4464 25.2974 35.5015 25.3104 37.5568 25.2974C37.5705 26.9642 37.5568 28.6309 37.5157 30.2974C37.0475 32.1486 35.8281 33.2553 33.8576 33.6177C25.8016 33.6698 17.7455 33.6698 9.68945 33.6177C7.7197 33.2561 6.50033 32.1493 6.03134 30.2974C5.97653 24.7505 5.97653 19.2036 6.03134 13.6567C6.49838 11.8717 7.66294 10.752 9.52504 10.2974ZM17.3345 14.5161C20.7134 14.3312 23.3029 15.5812 25.1028 18.2661C26.677 21.2705 26.403 24.109 24.2808 26.7817C21.6695 29.3845 18.5868 30.0485 15.0327 28.7739C11.7557 27.1691 10.2349 24.604 10.4704 21.0786C11.1838 17.3928 13.4719 15.2053 17.3345 14.5161Z" fill="white"/>
</g>
<g id="Group_3">
<path id="Vector_3" opacity="0.949" fill-rule="evenodd" clip-rule="evenodd" d="M17.7454 16.0792C20.8026 16.0666 22.9263 17.3947 24.1163 20.0636C24.9807 23.3547 23.8435 25.7895 20.7048 27.3683C17.5337 28.4035 14.9717 27.6353 13.0186 25.0636C11.4777 22.2678 11.875 19.7547 14.2106 17.5245C15.2471 16.7149 16.4254 16.2331 17.7454 16.0792ZM17.992 17.6417C16.5442 17.8023 15.4071 18.4534 14.5805 19.5948C13.4917 21.6339 13.8067 23.4438 15.5259 25.0245C17.437 26.2402 19.3277 26.2141 21.198 24.9464C21.6381 24.2588 21.4464 23.803 20.6226 23.5792C20.2428 23.6919 19.914 23.8872 19.6361 24.1651C17.9297 24.8615 16.6418 24.4318 15.7725 22.8761C17.8859 22.8342 19.9958 22.769 22.1023 22.6808C22.2491 22.6194 22.3724 22.5283 22.4722 22.4073C22.596 21.9975 22.6234 21.5808 22.5544 21.1573C21.9822 18.8823 20.4614 17.7104 17.992 17.6417Z" fill="white"/>
</g>
<g id="Group_4">
<path id="Vector_4" opacity="0.932" fill-rule="evenodd" clip-rule="evenodd" d="M17.6634 19.4387C19.1666 19.2539 20.2079 19.8138 20.7872 21.1184C19.115 21.1835 17.4435 21.1704 15.7727 21.0793C16.1216 20.2264 16.7518 19.6796 17.6634 19.4387Z" fill="white"/>
</g>
<g id="Group_5">
<path id="Vector_5" opacity="0.972" fill-rule="evenodd" clip-rule="evenodd" d="M30.816 20.2979C33.0629 20.2979 35.3099 20.2979 37.5568 20.2979C37.5568 21.4176 37.5568 22.5375 37.5568 23.6572C35.3371 23.6703 33.1176 23.6572 30.8982 23.6182C29.8015 23.2304 29.4042 22.4882 29.7063 21.3916C29.8721 20.8305 30.242 20.466 30.816 20.2979ZM31.2271 21.1572C32.0507 21.1721 32.3658 21.5628 32.1724 22.3291C31.9013 22.6979 31.5314 22.815 31.0626 22.6807C30.5966 22.4063 30.4733 22.0286 30.6927 21.5479C30.8411 21.3661 31.0192 21.236 31.2271 21.1572Z" fill="white"/>
</g>
</g>
</svg>
