<svg width="34" height="31" viewBox="0 0 34 31" fill="none" xmlns="http://www.w3.org/2000/svg">
<path id="Vector" d="M29.087 12.0838C30.5098 11.2829 31.2212 10.8824 31.6106 10.2371C32 9.59185 32 8.81347 32 7.25671V6.22198C32 4.23173 32 3.2366 31.341 2.6183C30.6819 2 29.6213 2 27.5 2H6.5C4.37869 2 3.31802 2 2.65901 2.6183C2 3.2366 2 4.23173 2 6.22198V7.25671C2 8.81347 2 9.59185 2.3894 10.2371C2.7788 10.8824 3.4902 11.2829 4.91303 12.0838L9.28256 14.5436C10.2372 15.0809 10.7145 15.3497 11.0563 15.6464C11.768 16.2642 12.2061 16.9902 12.4047 17.8808C12.5 18.3083 12.5 18.8087 12.5 19.8093V23.8136C12.5 25.178 12.5 25.86 12.8779 26.3919C13.2558 26.9237 13.9269 27.186 15.2693 27.7109C18.0872 28.8125 19.4961 29.3633 20.4981 28.7366C21.5 28.1099 21.5 26.6778 21.5 23.8136V19.8093C21.5 18.8087 21.5 18.3083 21.5954 17.8808C21.7938 16.9902 22.232 16.2642 22.9437 15.6464" stroke="#1569C7" stroke-width="2.5" stroke-linecap="round"/>
</svg>
