<svg width="24" height="25" viewBox="0 0 24 25" fill="none" xmlns="http://www.w3.org/2000/svg">
<path d="M1.4727 7C1.16812 7.47738 1 8.02605 1 8.59638V16.4036C1 17.5443 1.67248 18.5983 2.76413 19.1686L10.2359 23.0723C10.7817 23.3574 11.3908 23.5 12 23.5M1.4727 7C1.77727 6.52262 2.2183 6.11654 2.76413 5.83137L6.5 3.87956M1.4727 7L12 12.5M12 12.5V23.5M12 12.5L17.2637 9.75M12 23.5C12.6092 23.5 13.2183 23.3574 13.7641 23.0723L21.2359 19.1686C22.3275 18.5983 23 17.5443 23 16.4036V8.59638C23 8.02605 22.8319 7.47738 22.5273 7M22.5273 7C22.2227 6.52262 21.7817 6.11654 21.2359 5.83137L13.7641 1.92775C12.6725 1.35742 11.3275 1.35742 10.2359 1.92775L6.5 3.87956M22.5273 7L17.2637 9.75M17.2637 9.75L6.5 3.87956M17.2637 9.75V13.7222" stroke="black" stroke-width="1.3" stroke-linecap="round"/>
</svg>
