<svg width="67" height="70" viewBox="0 0 67 70" fill="none" xmlns="http://www.w3.org/2000/svg">
<mask id="mask0_67_1077" style="mask-type:luminance" maskUnits="userSpaceOnUse" x="0" y="0" width="67" height="69">
<path d="M0.00878906 0.498047H66.9912V68.7597H0.00878906V0.498047Z" fill="white"/>
</mask>
<g mask="url(#mask0_67_1077)">
<path d="M65.8365 23.3077C62.2118 9.0364 51.2486 0.514648 36.509 0.514648H0.00878906L0.729199 2.28131C3.82191 9.86283 10.8219 14.7654 18.5598 14.7692H28.499L28.5793 14.7654C28.9578 14.7375 30.3532 14.6461 32.4464 14.6461C34.4611 14.6461 36.5125 14.7319 38.5377 14.8979L38.7365 14.9128C46.4901 15.5658 57.1148 17.7335 63.6805 24.345L63.7642 24.4289C63.7991 24.4625 63.834 24.4961 63.8654 24.5334L66.9912 27.8615L65.8365 23.3077ZM66.836 39.7561L66.8273 39.8942C64.8562 57.6764 53.1133 68.7222 36.1846 68.7222H12.8977V35.055H14.0768C20.8937 35.055 26.439 40.9874 26.439 48.2779V54.2382H36.7532C41.8327 54.2382 46.1081 52.4548 49.124 49.08C52.1906 45.6437 53.8111 40.6796 53.8111 34.721V34.5158C53.8111 29.9042 52.8639 25.9269 50.9922 22.6921L49.2444 19.6737L52.3807 20.8378C56.2706 22.2817 59.4278 24.205 61.76 26.5556C65.1684 29.9882 66.8761 34.43 66.836 39.7561Z" fill="#1569C7"/>
</g>
<path d="M9.49618 15.0557C9.49618 15.8364 9.97762 16.3667 10.5846 16.3667C11.1987 16.3667 11.6661 15.8364 11.6661 15.0557C11.6661 14.2676 11.1987 13.7373 10.5846 13.7373C9.97762 13.7373 9.49618 14.2676 9.49618 15.0557ZM3.64917 13.8331V16.293C3.64917 16.4698 3.72592 16.5803 3.85849 16.5803H3.90035C4.21433 16.5803 4.3469 16.0647 4.84229 16.0647H8.68681C8.88915 16.0647 9.06358 15.8732 8.91008 15.5491L8.10769 13.8183C8.03094 13.6637 7.97512 13.5605 7.85651 13.5605H7.81464C7.55648 13.5605 7.40298 14.0172 6.90061 14.0172H4.84229C4.3469 14.0172 4.21433 13.5605 3.90035 13.5605H3.85849C3.72592 13.5605 3.64917 13.6637 3.64917 13.8331Z" fill="#1569C7"/>
<path d="M4.84229 23.6316L6.72618 23.4843C8.44958 23.3444 8.97986 22.2912 8.97986 21.2969C8.97986 20.5382 8.68681 19.9711 8.16351 19.6618H8.67285C8.89613 19.6618 9.07754 19.5071 8.93799 19.2272L8.18444 17.6216C8.11467 17.4596 8.04489 17.3491 7.9193 17.3491H7.88441C7.57043 17.3491 7.50066 17.9531 6.98434 17.9531H4.84229C4.3469 17.9531 4.21433 17.4522 3.90035 17.4522H3.85849C3.72592 17.4522 3.64917 17.5553 3.64917 17.7247V20.1994C3.64917 20.3688 3.72592 20.472 3.85849 20.472H3.90035C4.21433 20.472 4.3469 19.9711 4.84229 19.9711H7.20761C7.84255 19.9711 8.26119 20.2068 8.26119 20.715C8.26119 21.2306 7.86348 21.4442 6.78897 21.5031L4.84229 21.6209C4.3469 21.6504 4.21433 21.2085 3.90035 21.2085H3.85849C3.72592 21.2085 3.64917 21.3116 3.64917 21.481V23.7716C3.64917 23.9336 3.72592 24.0441 3.85849 24.0441H3.90035C4.21433 24.0441 4.3469 23.6684 4.84229 23.6316Z" fill="#1569C7"/>
<path d="M5.47723 29.6215C5.21209 29.4153 4.9958 28.9733 4.9958 28.3989C4.9958 27.7581 5.33071 27.2499 5.87494 26.9553C5.86796 27.3014 5.8889 27.6992 5.95169 28.0969C6.11217 29.1796 6.74711 29.9308 7.50066 29.9308C8.45656 29.9308 9.0915 29.0175 9.07754 27.655C9.06359 26.1156 8.01698 24.812 6.39824 24.812C4.75857 24.812 3.64917 26.0125 3.64917 27.7139C3.64917 29.3637 4.72368 30.0118 5.32373 30.0487C5.56096 30.056 5.62376 29.7835 5.47723 29.6215ZM8.5054 27.4119C8.5054 27.7949 8.12164 28.0748 7.64719 28.0895C6.89363 28.0895 6.55872 27.817 6.47499 27.3088C6.45406 27.1615 6.44011 26.9553 6.45406 26.7343C6.71222 26.668 6.99132 26.6312 7.28436 26.6312C8.00303 26.6312 8.5054 26.9406 8.5054 27.4119Z" fill="#1569C7"/>
<path d="M4.84229 37.0999L6.72618 36.9526C8.44958 36.8126 8.97986 35.7594 8.97986 34.7651C8.97986 34.0065 8.68681 33.4394 8.16351 33.1301H8.67285C8.89613 33.1301 9.07754 32.9754 8.93799 32.6955L8.18444 31.0899C8.11467 30.9279 8.04489 30.8174 7.9193 30.8174H7.88441C7.57043 30.8174 7.50066 31.4213 6.98434 31.4213H4.84229C4.3469 31.4213 4.21433 30.9205 3.90035 30.9205H3.85849C3.72592 30.9205 3.64917 31.0236 3.64917 31.193V33.6677C3.64917 33.8371 3.72592 33.9402 3.85849 33.9402H3.90035C4.21433 33.9402 4.3469 33.4394 4.84229 33.4394H7.20761C7.84255 33.4394 8.26119 33.6751 8.26119 34.1833C8.26119 34.6988 7.86348 34.9124 6.78897 34.9713L4.84229 35.0892C4.3469 35.1186 4.21433 34.6767 3.90035 34.6767H3.85849C3.72592 34.6767 3.64917 34.7799 3.64917 34.9493V37.2398C3.64917 37.4019 3.72592 37.5123 3.85849 37.5123H3.90035C4.21433 37.5123 4.3469 37.1367 4.84229 37.0999Z" fill="#1569C7"/>
<path d="M3.64917 41.4483C3.64917 43.1202 4.77252 44.5122 6.35638 44.5122C7.94721 44.5122 9.07754 43.0907 9.07754 41.3746C9.07754 39.7322 7.9821 38.2812 6.37731 38.2812C4.80043 38.2812 3.64917 39.6954 3.64917 41.4483ZM4.18643 41.6913C4.18643 40.7633 6.30754 40.3067 7.18668 40.3067C8.06583 40.3067 8.54726 40.4982 8.54726 41.0506C8.54726 41.9565 6.36335 42.4278 5.5191 42.4278C4.70275 42.4278 4.18643 42.229 4.18643 41.6913Z" fill="#1569C7"/>
<path d="M8.9659 49.1548C8.9659 48.3668 8.58913 47.8217 7.89139 47.5713H8.68681C8.90311 47.5713 9.04963 47.4609 8.92404 47.1589L8.20537 45.5459C8.12164 45.3765 8.02396 45.2808 7.89139 45.2808H7.85651C7.54253 45.2808 7.50066 45.8332 6.99132 45.8332H4.82834C4.33295 45.8332 4.20038 45.3765 3.90035 45.3765H3.85849C3.72592 45.3765 3.64917 45.487 3.64917 45.649V48.109C3.64917 48.271 3.72592 48.3889 3.85849 48.3889H3.90035C4.20038 48.3889 4.33295 47.7776 4.82834 47.7776H6.85177C7.32623 47.7776 7.89139 47.8365 7.89139 48.2047C7.89139 48.7719 6.8727 48.3079 6.8727 49.3463C6.8727 50.0092 7.34716 50.2302 7.89139 50.2302C8.49842 50.2302 8.9659 49.8324 8.9659 49.1548Z" fill="#1569C7"/>
<path d="M4.93998 56.8391H11.6731C11.9662 56.8391 12.029 56.6697 11.9313 56.3383L11.4219 54.5486C11.3801 54.3865 11.2545 54.2834 11.1359 54.2834H11.1079C10.794 54.2834 10.7242 54.8947 10.2148 54.8947H8.77054C8.9659 54.5854 9.07754 54.195 9.07754 53.7163C9.07754 52.2727 7.9821 50.9985 6.36335 50.9985C4.58413 50.9985 3.64917 52.3169 3.64917 53.7016C3.64917 54.2613 3.8236 54.7548 4.13061 55.1009H4.03292C3.87244 55.1009 3.76081 55.2114 3.76081 55.3955V57.038C3.76081 57.1927 3.83756 57.2958 3.97013 57.2958H4.01199C4.31202 57.2958 4.44459 56.8391 4.93998 56.8391ZM4.18643 54.1582C4.21433 53.3038 6.30056 52.9208 7.20761 52.9577C8.07978 52.9945 8.54726 53.3038 8.54726 53.8636C8.54726 54.3865 7.88441 54.8947 7.18668 54.8947H5.09348C4.50738 54.8947 4.17247 54.5486 4.18643 54.1582Z" fill="#1569C7"/>
<path d="M5.47723 62.8734C5.21209 62.6672 4.9958 62.2253 4.9958 61.6508C4.9958 61.01 5.33071 60.5018 5.87494 60.2072C5.86796 60.5534 5.8889 60.9511 5.95169 61.3488C6.11217 62.4315 6.74711 63.1828 7.50066 63.1828C8.45656 63.1828 9.0915 62.2695 9.07754 60.9069C9.06359 59.3676 8.01698 58.064 6.39824 58.064C4.75857 58.064 3.64917 59.2645 3.64917 60.9658C3.64917 62.6156 4.72368 63.2638 5.32373 63.3006C5.56096 63.308 5.62376 63.0355 5.47723 62.8734ZM8.5054 60.6639C8.5054 61.0469 8.12164 61.3267 7.64719 61.3415C6.89363 61.3415 6.55872 61.069 6.47499 60.5608C6.45406 60.4135 6.44011 60.2072 6.45406 59.9863C6.71222 59.92 6.99132 59.8832 7.28436 59.8832C8.00303 59.8832 8.5054 60.1925 8.5054 60.6639Z" fill="#1569C7"/>
<path d="M8.9659 67.9439C8.9659 67.1558 8.58913 66.6108 7.89139 66.3604H8.68681C8.90311 66.3604 9.04963 66.2499 8.92404 65.9479L8.20537 64.335C8.12164 64.1656 8.02396 64.0698 7.89139 64.0698H7.85651C7.54253 64.0698 7.50066 64.6222 6.99132 64.6222H4.82834C4.33295 64.6222 4.20038 64.1656 3.90035 64.1656H3.85849C3.72592 64.1656 3.64917 64.276 3.64917 64.4381V66.8981C3.64917 67.0601 3.72592 67.1779 3.85849 67.1779H3.90035C4.20038 67.1779 4.33295 66.5666 4.82834 66.5666H6.85177C7.32623 66.5666 7.89139 66.6255 7.89139 66.9938C7.89139 67.5609 6.8727 67.0969 6.8727 68.1354C6.8727 68.7983 7.34716 69.0192 7.89139 69.0192C8.49842 69.0192 8.9659 68.6215 8.9659 67.9439Z" fill="#1569C7"/>
</svg>
