<svg width="43" height="41" viewBox="0 0 43 41" fill="none" xmlns="http://www.w3.org/2000/svg">
<g id="money 1" clip-path="url(#clip0_2479_14529)">
<g id="Group">
<path id="Vector" opacity="0.946" fill-rule="evenodd" clip-rule="evenodd" d="M33.7517 5.37619C34.739 5.36521 35.4377 5.78188 35.8479 6.62619C35.9965 7.08648 36.0924 7.55523 36.1357 8.03244C28.306 9.12338 20.4828 10.1651 12.6662 11.1574C12.6288 11.0603 12.6699 10.9952 12.7895 10.9621C19.7842 9.08869 26.7716 7.2267 33.7517 5.37619Z" fill="#6B7283"/>
</g>
<g id="Group_2">
<path id="Vector_2" opacity="0.944" fill-rule="evenodd" clip-rule="evenodd" d="M37.1221 9.04757C38.4938 8.88468 39.357 9.43155 39.7116 10.6882C39.7834 11.2216 39.852 11.7555 39.9171 12.2898C39.9135 12.4276 39.886 12.5578 39.8349 12.6804C30.628 12.7194 21.4211 12.7325 12.2141 12.7194C12.2026 12.5926 12.2575 12.5015 12.3786 12.446C20.6419 11.3372 28.8898 10.2044 37.1221 9.04757Z" fill="#6B7283"/>
</g>
<g id="Group_3">
<path id="Vector_3" opacity="0.98" fill-rule="evenodd" clip-rule="evenodd" d="M42.1366 15.2197C42.1366 21.4176 42.1366 27.6156 42.1366 33.8135C41.8285 34.5612 41.2531 35.0169 40.4103 35.1807C27.5316 35.2328 14.6529 35.2328 1.77415 35.1807C0.931404 35.0169 0.355969 34.5612 0.0478516 33.8135C0.0478516 27.6156 0.0478516 21.4176 0.0478516 15.2197C0.306711 14.5962 0.772537 14.1665 1.44533 13.9307C14.5432 13.8786 27.6412 13.8786 40.7391 13.9307C41.4119 14.1665 41.8778 14.5962 42.1366 15.2197ZM5.06233 16.4697C8.07663 16.4567 11.0908 16.4697 14.1048 16.5088C14.41 16.7051 14.5058 16.9786 14.3926 17.3291C14.2841 17.4844 14.1335 17.5755 13.9404 17.6026C11.2551 17.6286 8.56976 17.6547 5.88438 17.6807C5.54186 18.527 4.92532 19.1129 4.03478 19.4385C3.96628 22.8502 3.97998 26.2617 4.07588 29.6729C4.97073 29.9669 5.57356 30.5397 5.88438 31.3916C8.62114 31.4562 11.3613 31.4952 14.1048 31.5088C14.41 31.7051 14.5058 31.9786 14.3926 32.3291C14.3241 32.3942 14.2555 32.4594 14.187 32.5244C11.2052 32.6531 8.21845 32.6792 5.22674 32.6026C5.03375 32.5755 4.88304 32.4844 4.77462 32.3291C4.73431 31.2491 4.14517 30.6893 3.00722 30.6494C2.93872 30.5844 2.87021 30.5192 2.80171 30.4541C2.66625 26.6035 2.63884 22.7494 2.7195 18.8916C2.75647 18.7339 2.82497 18.5907 2.92501 18.4619C3.21947 18.3642 3.52089 18.2861 3.82927 18.2276C4.44472 17.9314 4.75985 17.4496 4.77462 16.7822C4.83132 16.6377 4.92722 16.5335 5.06233 16.4697ZM20.0236 16.4697C24.2625 16.2629 27.263 17.9817 29.025 21.626C30.2965 25.4533 29.2963 28.6174 26.0245 31.1182C22.3049 33.3005 18.7427 33.0922 15.3379 30.4932C12.3898 27.5757 11.8281 24.2814 13.6527 20.6104C15.1026 18.2878 17.2262 16.9076 20.0236 16.4697ZM28.0796 16.4697C31.0939 16.4567 34.1081 16.4697 37.1221 16.5088C37.1974 16.538 37.266 16.5771 37.3277 16.626C37.4709 16.8961 37.5531 17.1825 37.5743 17.4854C37.6615 17.7246 37.8122 17.9199 38.0264 18.0713C38.4469 18.2328 38.8715 18.3761 39.3006 18.501C39.3714 18.625 39.4263 18.7552 39.465 18.8916C39.5198 22.6416 39.5198 26.3916 39.465 30.1416C39.4596 30.3585 39.3637 30.5277 39.1773 30.6494C38.0393 30.6893 37.4501 31.2491 37.4099 32.3291C37.3414 32.3942 37.2728 32.4594 37.2043 32.5244C34.2225 32.6531 31.2357 32.6792 28.244 32.6026C27.7871 32.4887 27.6364 32.2152 27.7919 31.7822C27.833 31.639 27.929 31.5479 28.0796 31.5088C30.7924 31.4828 33.5051 31.4567 36.2179 31.4307C36.4491 31.0187 36.723 30.628 37.0399 30.2588C37.366 30.0141 37.7222 29.8188 38.1086 29.6729C38.2045 26.2617 38.2182 22.8502 38.1497 19.4385C37.2592 19.1129 36.6426 18.527 36.3001 17.6807C33.6147 17.6547 30.9294 17.6286 28.244 17.6026C27.7413 17.4212 27.618 17.0957 27.8741 16.626C27.9559 16.5818 28.0244 16.5297 28.0796 16.4697ZM7.44627 22.7197C8.60486 22.5733 9.38581 23.016 9.7891 24.0479C9.91964 25.7208 9.11132 26.4629 7.36406 26.2744C6.05893 25.6803 5.71642 24.7558 6.33651 23.501C6.63076 23.1284 7.00068 22.868 7.44627 22.7197ZM33.7518 22.7197C34.9103 22.5733 35.6913 23.016 36.0946 24.0479C36.2251 25.7208 35.4168 26.4629 33.6695 26.2744C32.3644 25.6803 32.0219 24.7558 32.642 23.501C32.9362 23.1284 33.3061 22.868 33.7518 22.7197Z" fill="#6B7283"/>
</g>
<g id="Group_4">
<path id="Vector_4" opacity="0.969" fill-rule="evenodd" clip-rule="evenodd" d="M20.1056 17.6421C23.6403 17.4259 26.2024 18.8061 27.7917 21.7827C29.0733 25.3385 28.1279 28.2161 24.9557 30.4155C22.1476 31.8882 19.4074 31.7839 16.7352 30.103C13.9602 27.8488 13.1793 25.0754 14.3924 21.7827C15.5664 19.4871 17.4708 18.1069 20.1056 17.6421ZM20.8454 18.9702C20.7103 19.0339 20.6144 19.1382 20.5577 19.2827C20.4862 19.6205 20.4177 19.9591 20.3522 20.2983C19.7662 20.5041 19.2867 20.8426 18.9136 21.3139C18.3753 22.3107 18.4301 23.2743 19.078 24.2046C19.816 24.8901 20.7066 25.2417 21.7497 25.2593C21.9243 25.3469 22.075 25.4641 22.2018 25.6108C22.4758 26.1317 22.4758 26.6525 22.2018 27.1733C21.462 27.9025 20.7221 27.9025 19.9823 27.1733C19.8445 26.7646 19.6938 26.3609 19.5302 25.9624C19.2325 25.7991 18.9448 25.8121 18.667 26.0014C18.4202 27.3956 19.0093 28.3071 20.4344 28.7358C20.4159 29.1068 20.457 29.4714 20.5577 29.8296C20.7998 30.1064 21.0875 30.1715 21.4209 30.0249C21.7099 29.6425 21.8195 29.2128 21.7497 28.7358C22.7014 28.4955 23.3179 27.9226 23.5993 27.0171C23.8429 25.4864 23.1989 24.4838 21.6675 24.0093C21.0096 24.0457 20.4479 23.8504 19.9823 23.4233C19.6341 22.7419 19.73 22.13 20.27 21.5874C21.6498 21.1039 22.4034 21.5596 22.5306 22.9546C22.9258 23.3782 23.282 23.3522 23.5993 22.8764C23.6905 21.5959 23.1013 20.7365 21.8319 20.2983C21.7896 19.8939 21.6937 19.5033 21.5442 19.1264C21.3333 18.9953 21.1004 18.9432 20.8454 18.9702Z" fill="#6B7283"/>
</g>
<g id="Group_5">
<path id="Vector_5" opacity="0.884" fill-rule="evenodd" clip-rule="evenodd" d="M7.61057 23.8915C8.54615 23.8337 8.82022 24.2113 8.43262 25.0243C8.07928 25.2888 7.73676 25.2758 7.40506 24.9852C7.19309 24.5616 7.26159 24.197 7.61057 23.8915Z" fill="#6B7283"/>
</g>
<g id="Group_6">
<path id="Vector_6" opacity="0.884" fill-rule="evenodd" clip-rule="evenodd" d="M33.916 23.8915C34.8516 23.8337 35.1256 24.2113 34.738 25.0243C34.3847 25.2888 34.0422 25.2758 33.7105 24.9852C33.4985 24.5616 33.567 24.197 33.916 23.8915Z" fill="#6B7283"/>
</g>
</g>
<defs>
<clipPath id="clip0_2479_14529">
<rect width="42.0888" height="40" fill="white" transform="translate(0.0888672 0.336914)"/>
</clipPath>
</defs>
</svg>
