<svg width="25" height="31" viewBox="0 0 25 31" fill="none" xmlns="http://www.w3.org/2000/svg">
<path d="M20.441 13.7414C20.4411 13.7197 20.4412 13.698 20.4412 13.6763C20.4412 9.29065 16.8859 5.73535 12.5003 5.73535C8.11458 5.73535 4.55929 9.29065 4.55929 13.6763L4.55903 14.6689C4.55903 17.7337 3.40159 20.5281 1.5 22.6389C3.79352 23.4855 6.21159 24.0751 8.71921 24.3725C9.95899 24.5195 11.2207 24.5952 12.5 24.5952C13.7795 24.5952 15.0413 24.5195 16.2813 24.3724C18.7887 24.075 21.2066 23.4855 23.5 22.6389C21.5984 20.5281 20.441 17.7337 20.441 14.6689V13.7414Z" fill="#6B7283"/>
<path d="M16.2813 24.3724C18.7887 24.075 21.2066 23.4855 23.5 22.6389C21.5984 20.5281 20.441 17.7337 20.441 14.6689V13.7414C20.4411 13.7197 20.4412 13.698 20.4412 13.6763C20.4412 9.29065 16.8859 5.73535 12.5003 5.73535C8.11458 5.73535 4.55929 9.29065 4.55929 13.6763L4.55903 14.6689C4.55903 17.7337 3.40159 20.5281 1.5 22.6389C3.79352 23.4855 6.21159 24.0751 8.71921 24.3725M16.2813 24.3724C15.0413 24.5195 13.7795 24.5952 12.5 24.5952C11.2207 24.5952 9.95899 24.5195 8.71921 24.3725M16.2813 24.3724C16.4043 24.7555 16.4707 25.1639 16.4707 25.5878C16.4707 27.7806 14.6931 29.5583 12.5003 29.5583C10.3074 29.5583 8.52978 27.7806 8.52978 25.5878C8.52978 25.1639 8.5962 24.7555 8.71921 24.3725" stroke="#6B7283" stroke-width="1.5" stroke-linecap="round" stroke-linejoin="round"/>
<circle cx="17.3819" cy="5.73539" r="5.29398" fill="#1569C7"/>
</svg>
