<svg width="20" height="21" viewBox="0 0 20 21" fill="none" xmlns="http://www.w3.org/2000/svg">
<path d="M18.2748 6.15229L15.4665 17.3781C15.2665 18.2161 14.5165 18.7968 13.6499 18.7968H2.69984C1.44151 18.7968 0.541523 17.5688 0.916523 16.3658L4.42485 5.14839C4.66652 4.36848 5.39153 3.8291 6.2082 3.8291H16.4582C17.2499 3.8291 17.9082 4.31033 18.1832 4.97408C18.3415 5.33085 18.3748 5.73744 18.2748 6.15229Z" stroke="black" stroke-width="1.3" stroke-miterlimit="10"/>
<path d="M13.3334 18.7976H17.3167C18.3917 18.7976 19.2334 17.8932 19.1584 16.8229L18.3334 5.52246" stroke="black" stroke-width="1.3" stroke-miterlimit="10" stroke-linecap="round" stroke-linejoin="round"/>
<path d="M8.06671 5.83716L8.93338 2.25293" stroke="black" stroke-width="1.3" stroke-miterlimit="10" stroke-linecap="round" stroke-linejoin="round"/>
<path d="M13.6501 5.84596L14.4335 2.24512" stroke="black" stroke-width="1.3" stroke-miterlimit="10" stroke-linecap="round" stroke-linejoin="round"/>
<path d="M6.41663 10.5H13.0833" stroke="black" stroke-width="1.3" stroke-miterlimit="10" stroke-linecap="round" stroke-linejoin="round"/>
<path d="M5.58337 13.8193H12.25" stroke="black" stroke-width="1.3" stroke-miterlimit="10" stroke-linecap="round" stroke-linejoin="round"/>
</svg>
