<svg width="40" height="40" viewBox="0 0 40 40" fill="none" xmlns="http://www.w3.org/2000/svg">
<path opacity="0.962" fill-rule="evenodd" clip-rule="evenodd" d="M21.8408 1.45703C22.2022 1.45703 22.5636 1.45703 22.925 1.45703C28.6555 2.17672 33.0887 4.94746 36.2246 9.76925C35.4862 10.2532 34.7273 10.711 33.9477 11.1426C31.1162 6.76786 27.0806 4.40671 21.8408 4.05912C21.8408 3.19175 21.8408 2.32439 21.8408 1.45703Z" fill="#1569C7"/>
<path opacity="0.96" fill-rule="evenodd" clip-rule="evenodd" d="M18.8778 3.33691C19.0464 3.33691 19.2151 3.33691 19.3837 3.33691C19.3837 4.22837 19.3837 5.11983 19.3837 6.01128C14.1777 6.32441 10.1541 8.64942 7.31296 12.9863C7.24068 13.0345 7.1684 13.0345 7.09612 12.9863C6.38319 12.5699 5.68449 12.1362 5 11.6853C8.26457 6.66676 12.8905 3.88397 18.8778 3.33691Z" fill="#1569C7"/>
<path opacity="0.958" fill-rule="evenodd" clip-rule="evenodd" d="M21.8414 4.70996C26.8236 5.05539 30.6786 7.29608 33.4062 11.432C29.5837 13.699 25.7407 15.9397 21.8775 18.1541C21.8414 13.6728 21.8293 9.1914 21.8414 4.70996ZM23.3593 5.79416C23.565 5.7602 23.7336 5.82043 23.8652 5.97486C23.6423 6.37542 23.3051 6.54408 22.8533 6.48082C22.7798 6.40497 22.7677 6.32064 22.8172 6.22784C22.97 6.03841 23.1507 5.89385 23.3593 5.79416ZM25.3108 6.7338C26.2496 6.69607 26.623 7.12975 26.4312 8.03485C26.0713 8.57626 25.6015 8.68468 25.0217 8.36011C24.4902 7.70458 24.5867 7.16248 25.3108 6.7338ZM23.8652 9.33589C24.5838 9.33733 25.2222 9.55417 25.7806 9.98641C25.7624 10.4019 25.5335 10.6187 25.094 10.6369C24.6589 10.4156 24.2012 10.259 23.7207 10.1671C23.4048 10.0241 23.3567 9.81937 23.5761 9.55273C23.6774 9.47893 23.7738 9.40665 23.8652 9.33589ZM28.3466 9.48045C28.9701 9.51355 29.3315 9.83881 29.4308 10.4562C29.2826 11.1203 28.873 11.4094 28.202 11.3236C27.626 11.0418 27.4453 10.596 27.6599 9.98641C27.8427 9.74174 28.0716 9.57311 28.3466 9.48045ZM30.7318 10.5647C30.8311 10.5533 30.9275 10.5654 31.021 10.6008C30.7573 10.785 30.4682 10.8814 30.1536 10.8899C30.3414 10.7602 30.5342 10.6517 30.7318 10.5647ZM23.7929 11.938C24.8095 11.8828 25.4119 12.3526 25.5999 13.3474C25.3225 14.5462 24.5997 14.9558 23.4315 14.5762C22.612 13.9235 22.5156 13.1766 23.1424 12.3355C23.3421 12.1639 23.559 12.0314 23.7929 11.938ZM26.8287 11.938C26.9456 11.9769 27.0661 12.0009 27.1901 12.0103C27.1208 12.4287 26.8678 12.6696 26.4312 12.7331C26.0932 12.6724 26.033 12.5159 26.2505 12.2632C26.4383 12.1335 26.6311 12.0251 26.8287 11.938Z" fill="#1569C7"/>
<path opacity="0.96" fill-rule="evenodd" clip-rule="evenodd" d="M18.4435 6.66113C18.7567 6.66113 19.07 6.66113 19.3832 6.66113C19.3832 11.1184 19.3832 15.5757 19.3832 20.033C15.4856 17.8914 11.6307 15.6748 7.81836 13.3832C10.3209 9.51685 13.8626 7.27618 18.4435 6.66113ZM16.9979 8.6127C17.8146 8.77554 18.0916 9.25743 17.8292 10.0583C17.3022 10.6358 16.7721 10.6358 16.239 10.0583C15.9807 9.29769 16.2336 8.81588 16.9979 8.6127ZM11.9383 10.9257C13.0908 10.8855 13.6569 11.4396 13.6369 12.5881C13.2397 13.6926 12.5049 13.9938 11.4324 13.4916C10.6614 12.7206 10.6614 11.9497 11.4324 11.1786C11.6076 11.091 11.7763 11.0067 11.9383 10.9257ZM16.0583 11.6485C16.7249 11.6032 17.267 11.8441 17.6846 12.3713C17.7283 12.6667 17.5957 12.8474 17.2871 12.9134C17.0943 12.9616 16.9016 12.9616 16.7088 12.9134C16.4444 12.6375 16.1312 12.4327 15.7692 12.299C15.6874 12.1852 15.6754 12.0647 15.733 11.9376C15.834 11.8241 15.9424 11.7277 16.0583 11.6485ZM16.4197 14.5397C17.3888 14.6465 17.6899 15.1525 17.3232 16.0575C16.7933 16.5596 16.2873 16.5355 15.8053 15.9853C15.5186 15.2828 15.7233 14.8009 16.4197 14.5397Z" fill="#1569C7"/>
<path opacity="0.965" fill-rule="evenodd" clip-rule="evenodd" d="M4.34966 12.8057C5.1462 13.2041 5.91719 13.6498 6.66263 14.1428C4.63156 18.2747 4.47496 22.4791 6.19281 26.7557C6.38838 27.1589 6.59317 27.5564 6.80719 27.9483C6.08421 28.4305 5.33731 28.8762 4.56651 29.2855C4.33256 29.0355 4.15186 28.7464 4.0244 28.4182C2.07292 23.9661 1.88018 19.4366 3.44616 14.8295C3.72678 14.1437 4.02794 13.4691 4.34966 12.8057Z" fill="#1569C7"/>
<path opacity="0.965" fill-rule="evenodd" clip-rule="evenodd" d="M35.4302 12.8056C35.5021 12.7994 35.5624 12.8236 35.6109 12.8779C37.6422 16.977 38.0759 21.2415 36.9119 25.6715C36.5747 26.8759 36.1169 28.0324 35.5386 29.141C35.4888 29.2029 35.4286 29.251 35.3579 29.2855C34.5871 28.8762 33.8402 28.4304 33.1172 27.9483C35.203 23.9665 35.48 19.8585 33.9484 15.6246C33.7472 15.1172 33.5183 14.6232 33.2617 14.1428C33.997 13.707 34.7198 13.2612 35.4302 12.8056Z" fill="#1569C7"/>
<path opacity="0.962" fill-rule="evenodd" clip-rule="evenodd" d="M7.16836 14.4678C11.0312 16.6764 14.8861 18.9051 18.7332 21.1537C14.9505 23.3342 11.1678 25.5146 7.3852 27.695C5.39666 23.8937 5.11958 19.9664 6.55398 15.9134C6.73975 15.4216 6.94455 14.9398 7.16836 14.4678ZM8.32485 16.4916C9.37052 16.5371 9.69578 17.043 9.30063 18.0095C8.92571 18.3977 8.50406 18.4579 8.03573 18.1902C7.70418 17.8846 7.59576 17.5112 7.71047 17.0699C7.86036 16.8113 8.06516 16.6185 8.32485 16.4916ZM9.98729 20.0333C11.1415 20.2364 11.5872 20.911 11.3245 22.0572C10.5924 23.1075 9.7732 23.1798 8.86695 22.274C8.39418 21.0993 8.76763 20.3525 9.98729 20.0333ZM14.1073 20.0333C15.0692 20.2585 15.3101 20.8006 14.8301 21.6596C14.3305 22.0204 13.8607 21.9843 13.4206 21.5512C13.0716 20.7784 13.3004 20.2724 14.1073 20.0333ZM7.0238 20.1056C7.63768 20.0633 7.68587 20.1959 7.16836 20.5032C6.95929 20.5862 6.74245 20.6224 6.51784 20.6116C6.50201 20.5267 6.5261 20.4544 6.59012 20.3947C6.73941 20.2967 6.88397 20.2003 7.0238 20.1056ZM9.11993 23.8642C9.72007 23.9183 9.76828 24.099 9.26449 24.4063C8.81498 24.6124 8.34519 24.7448 7.85503 24.8038C7.33807 24.7136 7.32603 24.5571 7.81889 24.334C8.26795 24.1966 8.70163 24.04 9.11993 23.8642Z" fill="#1569C7"/>
<path opacity="0.961" fill-rule="evenodd" clip-rule="evenodd" d="M32.6109 14.4678C32.8422 14.7111 33.0229 15.0002 33.153 15.3351C34.6171 18.9882 34.6411 22.6505 33.2253 26.3217C33.0346 26.7996 32.8057 27.2575 32.5387 27.695C28.756 25.5146 24.9733 23.3342 21.1907 21.1537C25.0097 18.9349 28.8164 16.7063 32.6109 14.4678ZM32.0327 16.853C32.6778 16.8845 32.6778 17.017 32.0327 17.2506C31.8591 17.3094 31.6904 17.2973 31.5267 17.2144C31.6848 17.0755 31.8534 16.9551 32.0327 16.853ZM31.0931 19.0214C32.2424 18.9867 32.8086 19.5408 32.7916 20.6839C32.4702 21.6698 31.8076 22.0192 30.8039 21.7319C30.0597 21.2826 29.8309 20.644 30.1173 19.8165C30.3495 19.4267 30.6748 19.1617 31.0931 19.0214ZM25.9612 20.1779C26.8999 20.1402 27.2733 20.5739 27.0815 21.4789C26.8173 21.9538 26.4198 22.1105 25.8889 21.9488C25.3024 21.607 25.1699 21.1372 25.4913 20.5393C25.6334 20.3911 25.79 20.2706 25.9612 20.1779ZM28.6355 20.1779C28.7348 20.1666 28.8312 20.1786 28.9246 20.214C28.6709 20.4271 28.3818 20.5235 28.0573 20.5032C28.2518 20.3872 28.4446 20.2787 28.6355 20.1779ZM28.7801 22.5631C29.2129 22.5991 29.261 22.7557 28.9246 23.033C28.6566 23.1871 28.3675 23.2473 28.0573 23.2137C28.0496 23.04 28.1218 22.9075 28.2741 22.8161C28.4341 22.6993 28.6028 22.615 28.7801 22.5631ZM30.8039 23.7919C31.6529 23.9303 31.9541 24.4121 31.7074 25.2375C31.1743 25.815 30.6443 25.815 30.1173 25.2375C29.8654 24.5129 30.0942 24.031 30.8039 23.7919Z" fill="#1569C7"/>
<path opacity="0.959" fill-rule="evenodd" clip-rule="evenodd" d="M19.2396 22.2012C19.3838 26.5132 19.432 30.85 19.3841 35.2116C14.541 34.9115 10.7583 32.7792 8.03613 28.8148C8.09685 28.6871 8.19323 28.5907 8.32525 28.5257C11.9915 26.4521 15.6297 24.3439 19.2396 22.2012ZM16.8543 25.7429C17.6991 25.7803 18.0484 26.214 17.9024 27.0439C17.5591 27.6314 17.0893 27.7639 16.4929 27.4415C15.9247 26.719 16.0451 26.1529 16.8543 25.7429ZM14.3245 28.0559C14.5339 28.0288 14.7266 28.0649 14.9027 28.1643C14.6602 28.5868 14.2988 28.7554 13.8185 28.6702C13.7498 28.6183 13.7378 28.5581 13.7824 28.4895C13.9352 28.3001 14.1159 28.1555 14.3245 28.0559ZM10.7105 28.2004C11.7526 28.1932 12.1019 28.6751 11.7586 29.646C11.2526 30.2243 10.7466 30.2243 10.2407 29.646C9.94223 29.0114 10.0989 28.5295 10.7105 28.2004ZM14.975 29.2846C16.0427 29.3763 16.5608 29.9546 16.529 31.0193C16.1326 32.0512 15.4219 32.3524 14.3968 31.9228C13.6949 31.3565 13.5625 30.6698 13.9992 29.8629C14.2809 29.5839 14.6062 29.3912 14.975 29.2846ZM17.5771 33.5492C17.7631 33.5237 17.9317 33.5598 18.0831 33.6576C17.7791 34.0286 17.4177 34.137 16.9989 33.9828C17.1705 33.8016 17.3632 33.6571 17.5771 33.5492Z" fill="#1569C7"/>
<path opacity="0.962" fill-rule="evenodd" clip-rule="evenodd" d="M20.54 22.2012C24.2223 24.3076 27.9086 26.4158 31.5989 28.5257C31.731 28.5907 31.8273 28.6871 31.888 28.8148C29.1658 32.7792 25.3832 34.9115 20.54 35.2116C20.54 30.8748 20.54 26.538 20.54 22.2012ZM22.9976 26.2489C24.4581 26.3041 24.9762 27.0269 24.5516 28.4173C23.8229 29.2212 23.052 29.2694 22.2386 28.5618C21.6903 27.5203 21.9433 26.7494 22.9976 26.2489ZM28.2017 28.345C28.8759 28.2958 29.2854 28.597 29.4305 29.2485C29.2509 30.0849 28.7691 30.35 27.9849 30.0436C27.3582 29.3829 27.4305 28.8167 28.2017 28.345ZM25.5274 30.8025C25.6034 30.7917 25.6757 30.8037 25.7442 30.8386C25.4315 31.0439 25.0941 31.1644 24.7323 31.2C24.9845 31.0257 25.2496 30.8932 25.5274 30.8025ZM22.4916 31.2362C23.4477 31.3106 23.7729 31.7925 23.4674 32.6818C23.0927 33.1438 22.647 33.2281 22.1302 32.9348C21.562 32.2123 21.6824 31.6462 22.4916 31.2362Z" fill="#1569C7"/>
<path opacity="0.961" fill-rule="evenodd" clip-rule="evenodd" d="M19.3837 38.4648C18.9982 38.4648 18.6126 38.4648 18.2272 38.4648C12.6112 37.7663 8.25028 35.0678 5.14447 30.3694C5.84318 29.9478 6.54188 29.5261 7.24059 29.1045C7.31287 29.0563 7.38515 29.0563 7.45743 29.1045C10.3297 33.2642 14.3051 35.517 19.3837 35.8627C19.3837 36.7301 19.3837 37.5974 19.3837 38.4648Z" fill="#1569C7"/>
<path opacity="0.961" fill-rule="evenodd" clip-rule="evenodd" d="M21.6966 38.4648C21.3112 38.4648 20.9256 38.4648 20.5402 38.4648C20.5402 37.5974 20.5402 36.7301 20.5402 35.8627C25.6187 35.517 29.5941 33.2642 32.4664 29.1045C32.5387 29.0563 32.6109 29.0563 32.6832 29.1045C33.382 29.5261 34.0806 29.9478 34.7793 30.3694C31.6735 35.0678 27.3127 37.7663 21.6966 38.4648Z" fill="#1569C7"/>
</svg>
