<svg width="20" height="24" viewBox="0 0 20 24" fill="none" xmlns="http://www.w3.org/2000/svg">
<path d="M18.3335 6.29243V8.59453C18.3335 10.0976 17.5001 11.0488 16.1835 11.0488H13.3335V4.39938C13.3335 3.34346 14.0918 2.4873 15.0168 2.4873C15.9252 2.49682 16.7585 2.91538 17.3585 3.6003C17.9585 4.29474 18.3335 5.24602 18.3335 6.29243Z" stroke="black" stroke-width="1.3" stroke-miterlimit="10" stroke-linecap="round" stroke-linejoin="round"/>
<path d="M1.66656 7.24371V20.5617C1.66656 21.3512 2.44988 21.7983 2.99988 21.3227L4.4249 20.105C4.75823 19.8197 5.2249 19.8577 5.5249 20.2002L6.90821 21.7888C7.23321 22.1598 7.76658 22.1598 8.09158 21.7888L9.49158 20.1907C9.78324 19.8577 10.2499 19.8197 10.5749 20.105L11.9999 21.3227C12.5499 21.7888 13.3332 21.3417 13.3332 20.5617V4.38987C13.3332 3.34346 14.0832 2.4873 14.9999 2.4873H5.83323H4.9999C2.4999 2.4873 1.66656 4.1901 1.66656 6.29243V7.24371Z" stroke="black" stroke-width="1.3" stroke-miterlimit="10" stroke-linecap="round" stroke-linejoin="round"/>
<path d="M5.00006 9.14648H10.0001" stroke="black" stroke-width="1.3" stroke-linecap="round" stroke-linejoin="round"/>
<path d="M5.62488 12.9512H9.37488" stroke="black" stroke-width="1.3" stroke-linecap="round" stroke-linejoin="round"/>
</svg>
