<svg width="22" height="20" viewBox="0 0 22 20" fill="none" xmlns="http://www.w3.org/2000/svg">
<path d="M11.2744 16.1057H3.06151C1.8728 16.1057 1.00828 15.1331 1.00828 14.0525V4.43473C0.900213 3.24602 1.8728 2.27344 3.06151 2.27344H15.8131C17.0019 2.27344 17.8664 3.24602 17.8664 4.32667V9.40571" stroke="black" stroke-width="1.3" stroke-miterlimit="10" stroke-linecap="round" stroke-linejoin="round"/>
<path d="M5.22284 3.78656V0.760742" stroke="black" stroke-width="1.3" stroke-miterlimit="10" stroke-linecap="round" stroke-linejoin="round"/>
<path d="M13.6519 3.78656V0.760742" stroke="black" stroke-width="1.3" stroke-miterlimit="10" stroke-linecap="round" stroke-linejoin="round"/>
<path d="M15.9209 19.2401C18.726 19.2401 20.9999 16.9662 20.9999 14.1611C20.9999 11.356 18.726 9.08203 15.9209 9.08203C13.1158 9.08203 10.8419 11.356 10.8419 14.1611C10.8419 16.9662 13.1158 19.2401 15.9209 19.2401Z" stroke="black" stroke-width="1.3" stroke-miterlimit="10" stroke-linecap="round" stroke-linejoin="round"/>
<path d="M15.9212 12.0869V14.161L17.1099 15.2416" stroke="black" stroke-width="1.1" stroke-miterlimit="10" stroke-linecap="round" stroke-linejoin="round"/>
</svg>
