<svg width="23" height="24" viewBox="0 0 23 24" fill="none" xmlns="http://www.w3.org/2000/svg">
<path id="settings" d="M8.68855 19.7258L8.63262 19.2841L8.21813 19.1217C8.01466 19.042 7.82542 18.9472 7.64949 18.8379L7.6485 18.8373C7.44969 18.7142 7.25511 18.5822 7.06475 18.4411L6.72105 18.1865L6.32688 18.3527L3.89227 19.3791C3.78137 19.4167 3.68512 19.4172 3.58276 19.3874C3.51379 19.3673 3.45718 19.3318 3.39917 19.2389L1.31771 15.542L1.31209 15.5321L1.30616 15.5222C1.25274 15.4338 1.23825 15.3554 1.25904 15.2495C1.28141 15.1355 1.32641 15.0685 1.40173 15.0109L1.40174 15.0109L1.40554 15.008L3.52191 13.3693L3.86587 13.1029L3.80547 12.6721C3.79109 12.5696 3.78451 12.4749 3.78451 12.3875V11.6113C3.78451 11.5249 3.79106 11.4306 3.80547 11.3279L3.86587 10.8971L3.52191 10.6307L1.40554 8.99199L1.40555 8.99198L1.40173 8.98907C1.32641 8.93151 1.28141 8.8645 1.25904 8.75053C1.23825 8.64463 1.25274 8.56621 1.30616 8.47776L1.31209 8.46795L1.31771 8.45796L3.40586 4.74921L3.41628 4.73072L3.42562 4.71167C3.4666 4.62817 3.49625 4.61617 3.53759 4.60585C3.66166 4.57576 3.77424 4.58073 3.89212 4.62087L6.32688 5.64734L6.72105 5.81352L7.06475 5.55885C7.2509 5.42091 7.44607 5.29119 7.65044 5.16973C7.84923 5.05158 8.04494 4.95214 8.23757 4.87037L8.63439 4.70191L8.68855 4.27423L9.02677 1.60357C9.02683 1.60315 9.02688 1.60274 9.02694 1.60232C9.04266 1.4839 9.08528 1.40657 9.1596 1.33774L8.65458 0.792498L9.1596 1.33774C9.22782 1.27455 9.29034 1.25 9.38363 1.25H13.6164C13.7097 1.25 13.7722 1.27455 13.8404 1.33774C13.9147 1.40657 13.9573 1.48391 13.9731 1.60233C13.9731 1.60274 13.9732 1.60316 13.9732 1.60357L14.3114 4.27423L14.3674 4.71588L14.7819 4.8783C14.9854 4.95807 15.1753 5.05292 15.3523 5.16246C15.5504 5.28558 15.7447 5.41768 15.9353 5.55885L16.279 5.81352L16.6731 5.64734L19.1077 4.62094C19.2186 4.58334 19.3149 4.58281 19.4172 4.61261C19.4862 4.63269 19.5428 4.66816 19.6008 4.76111L21.6823 8.45796L21.6879 8.46795L21.6938 8.47776C21.7473 8.56621 21.7617 8.64463 21.741 8.75053C21.7186 8.8645 21.6736 8.93151 21.5983 8.98907L21.5983 8.98905L21.5945 8.99199L19.4781 10.6307L19.1341 10.8971L19.1945 11.3279C19.2089 11.4306 19.2155 11.5249 19.2155 11.6113V12.3875C19.2155 12.4367 19.2081 12.498 19.1869 12.5737L19.0505 13.06L19.4499 13.3693L21.5662 15.008L21.5662 15.008L21.57 15.0109C21.6454 15.0685 21.6904 15.1355 21.7127 15.2495C21.7335 15.3554 21.719 15.4338 21.6656 15.5222L21.6603 15.531L21.6553 15.5399L19.5732 19.2092C19.5161 19.3009 19.4517 19.3489 19.359 19.3786C19.2463 19.4138 19.1518 19.4123 19.0533 19.3797L16.6789 18.3551L16.2823 18.184L15.9353 18.4411C15.7491 18.5791 15.5539 18.7088 15.3496 18.8303C15.1508 18.9484 14.9551 19.0479 14.7624 19.1296L14.3656 19.2981L14.3114 19.7258L13.9732 22.3964C13.9732 22.3968 13.9731 22.3972 13.9731 22.3977C13.9573 22.5161 13.9147 22.5934 13.8404 22.6623C13.7722 22.7254 13.7097 22.75 13.6164 22.75H9.38363C9.29034 22.75 9.22782 22.7254 9.1596 22.6623C9.08528 22.5934 9.04266 22.5161 9.02694 22.3977C9.02688 22.3972 9.02683 22.3968 9.02677 22.3964L8.68855 19.7258ZM8.20981 8.63155L8.20956 8.63182C7.31007 9.56003 6.85588 10.697 6.85588 12C6.85588 13.303 7.31007 14.44 8.20956 15.3682L8.20981 15.3684C9.11552 16.3022 10.2468 16.775 11.5564 16.775C12.851 16.775 13.9744 16.2996 14.8853 15.3716C15.7957 14.444 16.257 13.306 16.257 12C16.257 10.694 15.7957 9.55595 14.8853 8.62839C13.9744 7.70035 12.851 7.225 11.5564 7.225C10.2468 7.225 9.11552 7.69785 8.20981 8.63155Z" fill="#6B7283" stroke="#6B7283" stroke-width="1.5"/>
</svg>
