<svg width="20" height="26" viewBox="0 0 20 26" fill="none" xmlns="http://www.w3.org/2000/svg">
<path d="M4.43086 16.1895H6.46552V14.2074C6.46552 14.1997 6.4306 14.1922 6.43086 14.1846C6.02983 13.6668 5.66431 13.0974 5.38 12.5262C5.2675 12.5062 5.14543 12.4693 5.03353 12.4158C4.51948 12.1703 4.04862 11.5719 3.78155 10.8151C3.3406 9.56526 3.60215 8.45213 4.405 8.16846C4.59422 8.10131 4.8275 8.09054 4.99991 8.13329V7.10524C3.70681 6.72598 2.88008 5.8011 2.88008 4.68676C2.88008 3.4165 3.85862 2.40551 5.26845 2.14934C5.76862 0.992247 7.59414 0.200195 9.92931 0.200195C12.2676 0.200195 14.0904 0.997677 14.5788 2.16149C15.9688 2.44619 16.9941 3.46701 16.9941 4.67762C16.9941 5.78058 16.2069 6.67616 15 7.06171V8.13812C15.2586 8.07726 15.4479 8.11588 15.5959 8.16829C16.3988 8.45213 16.6477 9.56509 16.2069 10.8151C16.0286 11.3203 15.7475 11.7685 15.428 12.0772C15.1643 12.3318 14.8637 12.4857 14.5754 12.5302C14.2711 13.1412 13.9655 13.7495 13.4483 14.2946V16.1895H15.5118C17.9896 16.1895 20 18.2294 20 20.7068V23.0186C20 23.2723 19.856 23.5031 19.6263 23.6108C16.065 25.2824 12.7086 25.8003 9.9144 25.8002C8.44353 25.8002 7.12931 25.6566 6.02371 25.4623C2.54181 24.8502 0.393274 23.6401 0.302067 23.5889C0.0958595 23.4731 -1.90735e-06 23.255 -1.90735e-06 23.0186V20.7068C-1.90735e-06 18.2294 1.9531 16.1895 4.43086 16.1895ZM7.75862 17.1512L9.055 18.4555L12.1552 16.5265V15.5592C11.5517 16.0272 10.7915 16.3183 10.0007 16.3183C9.17491 16.3183 8.44827 16.0011 7.75862 15.4959V17.1512ZM15.6576 4.67762C15.6576 4.0228 14.9455 3.47321 14.0011 3.39934C13.6737 3.37374 13.4159 3.10921 13.3988 2.78115C13.3717 2.26225 12.0066 1.50873 9.92905 1.50873C7.84431 1.50873 6.47077 2.2638 6.44086 2.78348C6.42181 3.11576 6.15612 3.38081 5.82379 3.39926C4.87586 3.45166 4.18784 3.99332 4.18784 4.68685C4.18784 5.28522 4.81095 5.78748 5.74845 5.93686C6.06612 5.98745 6.2931 6.26138 6.2931 6.58298V7.8285H13.7069V6.54703C13.7069 6.22915 13.9 5.95711 14.2132 5.90238C15.1399 5.74067 15.6576 5.2828 15.6576 4.67762ZM5.54983 9.12566C5.41526 9.35744 5.15293 9.48863 4.89284 9.45191C4.86276 9.62189 4.86181 9.95245 5.01138 10.3764C5.18733 10.875 5.44146 11.14 5.55741 11.2161C5.69284 11.1716 5.83965 11.173 5.97595 11.2202C6.14715 11.2795 6.28621 11.4076 6.35974 11.5732C7.06422 13.1584 8.43293 15.0095 9.97147 15.0095C11.5134 15.0095 12.8829 13.1532 13.5874 11.5632C13.6636 11.3911 13.8103 11.2604 13.9899 11.204C14.1302 11.16 14.2799 11.165 14.4156 11.2157C14.533 11.1372 14.7844 10.8741 14.9588 10.3799C15.1057 9.96331 15.1073 9.64008 15.079 9.46769C14.8052 9.52104 14.5216 9.37934 14.3827 9.1273L5.54983 9.12566ZM18.7069 22.5988V20.7068C18.7069 18.9509 17.2678 17.5686 15.5118 17.5686H13.0308L8.10353 20.5922V24.4099C10.9483 24.6596 14.6552 24.4115 18.7069 22.5988ZM1.2931 22.618C1.98276 22.9593 3.8031 23.7332 6.30819 24.1735C6.46733 24.2015 6.63793 24.2281 6.81034 24.2536V20.227C6.81034 19.9999 6.89431 19.7892 7.08759 19.6701L7.90431 19.1792L6.25362 17.5686H4.43077C2.67474 17.5686 1.29301 18.9509 1.29301 20.7068V22.618H1.2931Z" fill="black"/>
</svg>
