<svg width="41" height="41" viewBox="0 0 41 41" fill="none" xmlns="http://www.w3.org/2000/svg">
<g id="Group">
<g id="Group 1171275729">
<path id="Vector" d="M20.6816 40.3359C31.7273 40.3359 40.6816 31.3816 40.6816 20.3359C40.6816 9.29024 31.7273 0.335938 20.6816 0.335938C9.63595 0.335938 0.681641 9.29024 0.681641 20.3359C0.681641 31.3816 9.63595 40.3359 20.6816 40.3359Z" fill="white"/>
<g id="Group_2">
<path id="Vector_2" d="M18.3019 8.5955C18.9628 7.98101 19.7396 7.66797 20.6323 7.66797C21.5367 7.66797 22.3135 7.98101 22.9628 8.5955C23.612 9.21 23.9251 9.95203 23.9251 10.8332C23.9251 11.2622 23.8323 11.9114 23.6584 12.7578C23.4729 13.6158 23.2758 14.4854 23.0671 15.3781C22.8236 16.352 22.557 17.5578 22.2555 18.9955C21.9541 20.4332 21.6294 22.2303 21.2932 24.3984H19.983C19.6468 22.2535 19.3222 20.4564 19.0207 19.0071C18.7193 17.5578 18.441 16.3404 18.2091 15.3665C17.9657 14.3346 17.757 13.4419 17.5946 12.6767C17.4323 11.9114 17.3512 11.297 17.3512 10.8332C17.3164 9.95203 17.641 9.21 18.3019 8.5955ZM18.3251 27.3549C18.9743 26.7288 19.7396 26.4158 20.6091 26.4158C21.4903 26.4158 22.2555 26.7288 22.9048 27.3549C23.5541 27.981 23.8787 28.723 23.8787 29.5926C23.8787 30.4506 23.5541 31.1926 22.9048 31.8071C22.2555 32.4216 21.4903 32.7346 20.6091 32.7346C19.7396 32.7346 18.9743 32.4216 18.3251 31.8071C17.6758 31.1926 17.3512 30.4506 17.3512 29.5926C17.3512 28.7346 17.6758 27.9926 18.3251 27.3549Z" fill="#6B7283"/>
</g>
</g>
</g>
</svg>
